<svg xmlns="http://www.w3.org/2000/svg" viewBox="0 0 760 380" font-family="sans-serif" font-size="12"><rect width="760" height="380" fill="#fff"/><text x="380.0" y="22" text-anchor="middle" font-size="15" font-weight="bold" fill="#222">Consommation par jour (mAh)</text><line x1="60" y1="320" x2="610" y2="320" stroke="#999"/><rect x="115.0" y="279.9" width="165.0" height="40.1" fill="#2c3e50"/><text x="197.5" y="303.9" text-anchor="middle" fill="#fff" >0.79</text><rect x="115.0" y="274.3" width="165.0" height="5.6" fill="#e67e22"/><rect x="115.0" y="206.8" width="165.0" height="67.5" fill="#c0392b"/><text x="197.5" y="244.5" text-anchor="middle" fill="#fff" >1.33</text><text x="197.5" y="201.8" text-anchor="middle" fill="#333" font-weight="bold">2.23 mAh</text><text x="197.5" y="336.0" text-anchor="middle" fill="#333" >Optimiste</text><rect x="390.0" y="271.3" width="165.0" height="48.7" fill="#2c3e50"/><text x="472.5" y="299.6" text-anchor="middle" fill="#fff" >0.96</text><rect x="390.0" y="249.9" width="165.0" height="21.3" fill="#e67e22"/><text x="472.5" y="264.6" text-anchor="middle" fill="#fff" >0.42</text><rect x="390.0" y="80.9" width="165.0" height="169.1" fill="#c0392b"/><text x="472.5" y="169.4" text-anchor="middle" fill="#fff" >3.33</text><text x="472.5" y="75.9" text-anchor="middle" fill="#333" font-weight="bold">4.71 mAh</text><text x="472.5" y="336.0" text-anchor="middle" fill="#333" >Pessimiste</text><rect x="625" y="45" width="12" height="12" fill="#2c3e50"/><text x="642.0" y="56.0" text-anchor="start" fill="#333" >Veille</text><rect x="625" y="67" width="12" height="12" fill="#e67e22"/><text x="642.0" y="78.0" text-anchor="start" fill="#333" >Cycles + 00:02</text><rect x="625" y="89" width="12" height="12" fill="#c0392b"/><text x="642.0" y="100.0" text-anchor="start" fill="#333" >Autodécharge LiPo</text></svg>