<svg xmlns="http://www.w3.org/2000/svg" viewBox="0 0 760 380" font-family="sans-serif" font-size="12"><rect width="760" height="380" fill="#fff"/><text x="380.0" y="22" text-anchor="middle" font-size="15" font-weight="bold" fill="#222">Charge par cycle (mC, mesuré)</text><line x1="60" y1="320" x2="740" y2="320" stroke="#999"/><rect x="77.0" y="80.9" width="79.3" height="239.1" fill="#c0392b"/><text x="116.7" y="75.9" text-anchor="middle" fill="#333" font-weight="bold">583 mC</text><text x="116.7" y="336.0" text-anchor="middle" fill="#333" >démarrage</text><text x="116.7" y="350.0" text-anchor="middle" fill="#333" >à froid</text><rect x="190.3" y="263.0" width="79.3" height="57.0" fill="#2980b9"/><text x="230.0" y="258.0" text-anchor="middle" fill="#333" font-weight="bold">139 mC</text><text x="230.0" y="336.0" text-anchor="middle" fill="#333" >sans publi.</text><text x="230.0" y="350.0" text-anchor="middle" fill="#333" >affichage 1,5 s</text><rect x="303.7" y="147.3" width="79.3" height="172.7" fill="#e67e22"/><text x="343.3" y="142.3" text-anchor="middle" fill="#333" font-weight="bold">421 mC</text><text x="343.3" y="336.0" text-anchor="middle" fill="#333" >avec publi.</text><rect x="417.0" y="299.5" width="79.3" height="20.5" fill="#7f8c8d"/><text x="456.7" y="294.5" text-anchor="middle" fill="#333" font-weight="bold">50 mC</text><text x="456.7" y="336.0" text-anchor="middle" fill="#333" >sans publi.</text><text x="456.7" y="350.0" text-anchor="middle" fill="#333" >aff. évité</text><rect x="530.3" y="190.8" width="79.3" height="129.2" fill="#7f8c8d"/><text x="570.0" y="185.8" text-anchor="middle" fill="#333" font-weight="bold">315 mC</text><text x="570.0" y="336.0" text-anchor="middle" fill="#333" >avec publi.</text><text x="570.0" y="350.0" text-anchor="middle" fill="#333" >aff. évité</text><rect x="643.7" y="270.8" width="79.3" height="49.2" fill="#2980b9"/><text x="683.3" y="265.8" text-anchor="middle" fill="#333" font-weight="bold">120 mC</text><text x="683.3" y="336.0" text-anchor="middle" fill="#333" >sans publi.</text><text x="683.3" y="350.0" text-anchor="middle" fill="#333" >partial 1,2 s</text></svg>